HIERARCHY
ROOT __0
{
	OFFSET 0.0 0.0 0.0
	CHANNELS 0
	JOINT IKLegTarget.R
	{
		OFFSET 0.211553 -0.070982 0.073421
		CHANNELS 6 Xposition Yposition Zposition Xrotation Yrotation Zrotation
		End Site
		{
			OFFSET 0.000000 -0.191920 0.000000
		}
	}
	JOINT IKLPole.R
	{
		OFFSET 0.192917 0.630369 0.778434
		CHANNELS 6 Xposition Yposition Zposition Xrotation Yrotation Zrotation
		End Site
		{
			OFFSET -0.000000 0.288052 -0.000000
		}
	}
	JOINT hip
	{
		OFFSET 0.000000 0.000000 1.000000
		CHANNELS 6 Xposition Yposition Zposition Xrotation Yrotation Zrotation
		JOINT spine
		{
			OFFSET 0.000000 0.010257 0.185956
			CHANNELS 3 Xrotation Yrotation Zrotation
			JOINT spine.001
			{
				OFFSET 0.000000 -0.047000 0.404963
				CHANNELS 3 Xrotation Yrotation Zrotation
				JOINT Head
				{
					OFFSET 0.000000 0.038275 0.295777
					CHANNELS 3 Xrotation Yrotation Zrotation
					End Site
					{
						OFFSET 0.000000 0.000000 0.485327
					}
				}
				JOINT shoulder.R
				{
					OFFSET 0.195757 0.038275 0.182789
					CHANNELS 6 Xposition Yposition Zposition Xrotation Yrotation Zrotation
					JOINT upperArm.R
					{
						OFFSET 0.172586 -0.021106 0.000001
						CHANNELS 3 Xrotation Yrotation Zrotation
						JOINT lowArm.R
						{
							OFFSET 0.286341 -0.054438 -0.003392
							CHANNELS 3 Xrotation Yrotation Zrotation
							JOINT hand.R
							{
								OFFSET 0.285593 0.049479 0.003392
								CHANNELS 3 Xrotation Yrotation Zrotation
								JOINT finger.R
								{
									OFFSET 0.076868 -0.012608 0.000000
									CHANNELS 3 Xrotation Yrotation Zrotation
									End Site
									{
										OFFSET 0.068083 0.000000 0.000000
									}
								}
								JOINT thump.R
								{
									OFFSET 0.040973 0.013192 0.000000
									CHANNELS 6 Xposition Yposition Zposition Xrotation Yrotation Zrotation
									End Site
									{
										OFFSET 0.000000 0.101950 0.000000
									}
								}
							}
						}
					}
				}
				JOINT shoulder.L
				{
					OFFSET -0.195757 0.038275 0.182789
					CHANNELS 6 Xposition Yposition Zposition Xrotation Yrotation Zrotation
					JOINT upperArm.L
					{
						OFFSET -0.172586 -0.021106 0.000001
						CHANNELS 3 Xrotation Yrotation Zrotation
						JOINT lowArm.L
						{
							OFFSET -0.286341 -0.054438 -0.003392
							CHANNELS 3 Xrotation Yrotation Zrotation
							JOINT hand.L
							{
								OFFSET -0.285593 0.049479 0.003392
								CHANNELS 3 Xrotation Yrotation Zrotation
								JOINT finger.L
								{
									OFFSET -0.076868 -0.012608 0.000000
									CHANNELS 3 Xrotation Yrotation Zrotation
									End Site
									{
										OFFSET -0.068083 0.000000 0.000000
									}
								}
								JOINT thump.L
								{
									OFFSET -0.040973 0.013192 0.000000
									CHANNELS 6 Xposition Yposition Zposition Xrotation Yrotation Zrotation
									End Site
									{
										OFFSET 0.000000 0.101950 0.000000
									}
								}
							}
						}
					}
				}
			}
		}
		JOINT upperLeg.R
		{
			OFFSET 0.154966 -0.029210 -0.029855
			CHANNELS 6 Xposition Yposition Zposition Xrotation Yrotation Zrotation
			JOINT lowerLeg.R
			{
				OFFSET 0.037951 0.070906 -0.543962
				CHANNELS 3 Xrotation Yrotation Zrotation
				JOINT foot.R
				{
					OFFSET 0.018636 -0.071669 -0.366804
					CHANNELS 3 Xrotation Yrotation Zrotation
					End Site
					{
						OFFSET 0.004380 0.218937 -0.029225
					}
				}
			}
		}
		JOINT upperLeg.L
		{
			OFFSET -0.154966 -0.029210 -0.029855
			CHANNELS 6 Xposition Yposition Zposition Xrotation Yrotation Zrotation
			JOINT lowerLeg.L
			{
				OFFSET -0.037951 0.070906 -0.543962
				CHANNELS 3 Xrotation Yrotation Zrotation
				JOINT foot.L
				{
					OFFSET -0.018636 -0.071669 -0.366804
					CHANNELS 3 Xrotation Yrotation Zrotation
					End Site
					{
						OFFSET -0.004380 0.218937 -0.029225
					}
				}
			}
		}
	}
	JOINT IKArmPole.R
	{
		OFFSET 0.654684 -0.353783 1.770317
		CHANNELS 6 Xposition Yposition Zposition Xrotation Yrotation Zrotation
		End Site
		{
			OFFSET 0.000000 -0.396997 0.000000
		}
	}
	JOINT IKarmTarget.R
	{
		OFFSET 0.940277 -0.024532 1.773709
		CHANNELS 6 Xposition Yposition Zposition Xrotation Yrotation Zrotation
		End Site
		{
			OFFSET 0.113585 0.000000 0.000000
		}
	}
	JOINT IKLegTarget.L
	{
		OFFSET -0.211553 -0.070982 0.073421
		CHANNELS 6 Xposition Yposition Zposition Xrotation Yrotation Zrotation
		End Site
		{
			OFFSET 0.000000 -0.191920 0.000000
		}
	}
	JOINT IKLPole.L
	{
		OFFSET -0.192917 0.630369 0.778434
		CHANNELS 6 Xposition Yposition Zposition Xrotation Yrotation Zrotation
		End Site
		{
			OFFSET 0.000000 0.288052 -0.000000
		}
	}
	JOINT IKArmPole.L
	{
		OFFSET -0.654684 -0.353783 1.770317
		CHANNELS 6 Xposition Yposition Zposition Xrotation Yrotation Zrotation
		End Site
		{
			OFFSET 0.000000 -0.396997 0.000000
		}
	}
	JOINT IKarmTarget.L
	{
		OFFSET -0.940277 -0.024532 1.773709
		CHANNELS 6 Xposition Yposition Zposition Xrotation Yrotation Zrotation
		End Site
		{
			OFFSET -0.113585 0.000000 0.000000
		}
	}
}
MOTION
Frames: 4
Frame Time: 0.041667
0.211778 0.608787 0.462839 31.464902 -1.566857 -6.234260 0.192917 0.630369 1.145510 0.000000 0.000000 0.000000 0.011745 -0.008646 1.033141 -20.359339 0.000006 0.000001 -1.143538 0.000000 0.000000 -16.778990 13.109941 -12.443238 18.766701 0.466672 -2.086727 0.195757 0.038275 0.182789 11.259864 20.094393 -58.181785 -31.881885 -29.638008 30.393215 2.068705 -3.376072 63.980206 35.589667 34.090762 1.250556 -0.000000 0.000000 0.000000 0.040974 0.013193 0.000000 -0.000001 -0.000000 -0.000001 -0.195757 0.038275 0.182789 1.757474 9.095648 -44.696348 -133.466049 -144.002941 -154.213241 3.688840 3.767797 -89.778848 25.113492 -13.513774 4.233858 -0.000000 0.000001 -0.000001 -0.040974 0.013193 0.000000 -0.000002 -0.000006 0.000000 0.154966 -0.029210 -0.029855 80.492707 -0.722279 0.194714 -25.639654 3.300344 -1.219832 -2.298970 -3.741434 -0.202320 -0.154966 -0.029210 -0.029855 -39.721361 3.526435 5.729332 -37.330477 -2.754177 1.478546 -57.772308 -7.521129 2.157031 0.654684 -0.353783 2.137393 -0.000000 0.000000 -0.000000 0.574715 -0.083182 1.505378 -129.512326 75.839060 113.782803 -0.207943 -0.836506 0.804972 -155.367023 0.000000 0.000000 -0.137589 0.786712 0.798397 0.000000 0.000000 -0.000000 -0.654684 -0.353783 2.137393 -0.000000 0.000000 -0.000000 -0.215606 0.745323 1.450951 104.401812 -144.279427 34.590731 
0.211778 0.425402 0.241028 19.288032 1.712714 -2.816353 0.196929 0.697453 0.734124 0.000000 0.000000 0.000000 0.004585 0.019531 0.965854 -15.782766 0.000005 0.000000 -4.234608 -0.691672 0.021296 -16.778986 13.109944 -12.443238 18.772244 0.599876 -2.682776 0.195757 0.038275 0.182789 6.695999 1.107167 -39.072254 -49.481241 -2.584657 47.497405 2.374127 -3.511500 69.109562 37.474127 14.865227 -12.193202 0.000000 0.000001 -0.000000 0.040973 0.013192 -0.000000 0.000002 0.000000 0.000000 -0.195757 0.038275 0.182789 0.508953 -5.737883 -34.692532 -143.033163 -134.005648 -151.269224 1.742785 3.192825 -58.239739 -1.581766 -9.374786 -10.598924 -0.000002 0.000004 -0.000003 -0.040973 0.013193 0.000000 -0.000004 0.000004 -0.000002 0.154966 -0.029210 -0.029855 61.239346 -1.542659 0.645998 -33.547758 4.176721 -1.243802 7.538300 -0.507608 1.682443 -0.154966 -0.029211 -0.029855 -31.513591 4.028528 4.345106 -46.359209 -3.519707 1.546233 -53.676049 -7.179459 3.278102 0.654684 -0.353783 2.137393 -0.000000 0.000000 -0.000000 0.510138 0.042514 1.351752 -119.045676 75.387018 112.665405 -0.216167 -0.729261 0.622617 -147.744382 0.226633 -0.049986 -0.187639 0.786712 0.485317 0.000000 0.000000 -0.000000 -0.654684 -0.353783 2.137393 -0.000000 0.000000 -0.000000 -0.381557 0.609464 1.197895 114.382651 -138.261238 73.133035 
0.211778 0.078846 0.019216 -1.021684 4.081529 1.508291 0.200942 0.767704 0.322737 0.000000 0.000000 0.000000 -0.002574 0.048407 0.911253 -11.206193 0.000003 0.000000 -7.326055 -1.185849 0.004507 -16.778986 13.109943 -12.443237 18.779183 0.732980 -3.278697 0.195757 0.038275 0.182789 14.938064 -17.721937 -5.174181 -66.704570 38.655753 80.499435 1.270597 -2.840303 49.188669 28.567963 3.429249 -9.075068 0.000001 -0.000001 -0.000001 0.040973 0.013192 0.000000 0.000000 -0.000000 -0.000000 -0.195757 0.038275 0.182789 7.953314 -19.767141 -12.854588 -177.490266 -131.153689 -198.930038 0.243101 -1.294363 20.279619 -1.124480 9.803931 -43.676908 0.000003 -0.000001 0.000002 -0.040974 0.013192 -0.000000 0.000003 -0.000001 0.000002 0.154966 -0.029210 -0.029855 23.693282 -1.433113 0.039143 -20.370788 2.721508 -1.136800 6.653144 3.078525 2.549590 -0.154966 -0.029210 -0.029855 -0.318033 4.626969 0.719037 -67.920542 -5.313995 1.220832 -41.475579 -5.706332 5.712820 0.654684 -0.353783 2.137393 -0.000000 0.000000 -0.000000 0.445562 0.274226 1.198125 -101.125356 75.839053 113.782817 -0.224391 -0.398589 0.347523 -121.807681 0.252642 -0.106289 -0.237689 0.786712 0.172238 0.000000 0.000000 -0.000000 -0.654684 -0.353783 2.137393 -0.000000 0.000000 -0.000000 -0.527683 0.376036 1.023983 124.178877 -136.193098 107.015500 
0.211778 -0.183350 0.038604 -11.211720 4.094760 1.746149 0.198769 0.773362 0.339049 0.000000 0.000000 0.000000 -0.002574 0.037608 0.911665 -11.206193 0.000003 0.000000 -7.114092 -1.184267 0.006692 -16.778988 13.109946 -12.443239 18.772246 -0.599876 2.682775 0.195757 0.038275 0.182789 24.921248 -15.395868 20.835501 -48.513710 51.708818 62.308988 1.486793 -3.016217 53.466311 37.757999 -5.581492 -8.183829 -0.000001 0.000000 -0.000001 0.040974 0.013193 0.000000 -0.000001 0.000001 -0.000000 -0.195757 0.038275 0.182789 21.808569 -18.278329 17.513911 -222.790758 -134.381349 -207.657121 0.301707 1.504409 -23.672693 -2.982765 12.072659 -30.263250 0.000002 0.000000 0.000000 -0.040973 0.013193 -0.000000 0.000004 0.000001 -0.000000 0.154966 -0.029210 -0.029855 7.247649 -1.582212 -0.808833 -20.813369 2.769818 -1.145820 13.432198 3.494576 2.299996 -0.154966 -0.029210 -0.029855 46.309301 3.121631 -3.075826 -72.493244 -5.670414 1.066504 -27.701702 -1.705107 5.721223 0.654684 -0.353783 2.137393 -0.000000 0.000000 -0.000000 0.445562 0.445851 1.224306 -81.080240 78.606960 111.364001 -0.224391 0.093652 0.239327 -65.848010 0.244395 -0.114411 -0.236154 0.781350 0.205615 0.000000 0.000000 -0.000000 -0.654684 -0.353783 2.137393 -0.000000 0.000000 -0.000000 -0.527683 0.204691 1.116237 124.178877 -136.193098 107.015500 
